REM DIRINDEX 1\4,1\2\5,1\2\6,1\2\7,1\3\8,1\3\9,1\3\10,1\3\11
REM DIRNAME folder01,folder02,folder03,folder04,folder05,folder06,folder07,folder08,folder09,folder10,folder11
TITLE ""
FILE "t_k_319-329.mp3" MP3
  TRACK 01 AUDIO
    TITLE "4:cjc108_0958"
    INDEX 01 00:00:00
  TRACK 02 AUDIO
    TITLE "0:"
    INDEX 01 00:02:43
  TRACK 03 AUDIO
    TITLE "5:cjc108_0959"
    INDEX 01 00:03:64
  TRACK 04 AUDIO
    TITLE "0:"
    INDEX 01 00:05:05
  TRACK 05 AUDIO
    TITLE "6:cjc108_0960"
    INDEX 01 00:05:12
  TRACK 06 AUDIO
    TITLE "0:"
    INDEX 01 00:06:20
  TRACK 07 AUDIO
    TITLE "7:cjc108_0961"
    INDEX 01 00:06:37
  TRACK 08 AUDIO
    TITLE "0:"
    INDEX 01 00:11:46
  TRACK 09 AUDIO
    TITLE "5:cjc108_0962"
    INDEX 01 00:12:28
  TRACK 10 AUDIO
    TITLE "0:"
    INDEX 01 00:13:39
  TRACK 11 AUDIO
    TITLE "6:cjc108_0963"
    INDEX 01 00:13:41
  TRACK 12 AUDIO
    TITLE "0:"
    INDEX 01 00:15:72
  TRACK 13 AUDIO
    TITLE "7:cjc108_0964"
    INDEX 01 00:16:12
  TRACK 14 AUDIO
    TITLE "0:"
    INDEX 01 00:22:44
  TRACK 15 AUDIO
    TITLE "5:cjc108_0965"
    INDEX 01 00:23:28
  TRACK 16 AUDIO
    TITLE "0:"
    INDEX 01 00:24:25
  TRACK 17 AUDIO
    TITLE "6:cjc108_0966"
    INDEX 01 00:24:37
  TRACK 18 AUDIO
    TITLE "0:"
    INDEX 01 00:26:71
  TRACK 19 AUDIO
    TITLE "7:cjc108_0967"
    INDEX 01 00:27:10
  TRACK 20 AUDIO
    TITLE "0:"
    INDEX 01 00:30:63
  TRACK 21 AUDIO
    TITLE "5:cjc108_0968"
    INDEX 01 00:31:49
  TRACK 22 AUDIO
    TITLE "0:"
    INDEX 01 00:33:03
  TRACK 23 AUDIO
    TITLE "6:cjc108_0969"
    INDEX 01 00:33:13
  TRACK 24 AUDIO
    TITLE "0:"
    INDEX 01 00:37:30
  TRACK 25 AUDIO
    TITLE "7:cjc108_0970"
    INDEX 01 00:37:46
  TRACK 26 AUDIO
    TITLE "0:"
    INDEX 01 00:43:05
  TRACK 27 AUDIO
    TITLE "5:cjc108_0971"
    INDEX 01 00:43:74
  TRACK 28 AUDIO
    TITLE "0:"
    INDEX 01 00:45:14
  TRACK 29 AUDIO
    TITLE "6:cjc108_0972"
    INDEX 01 00:45:28
  TRACK 30 AUDIO
    TITLE "0:"
    INDEX 01 00:47:40
  TRACK 31 AUDIO
    TITLE "7:cjc108_0973"
    INDEX 01 00:47:54
  TRACK 32 AUDIO
    TITLE "0:"
    INDEX 01 00:53:09
  TRACK 33 AUDIO
    TITLE "5:cjc108_0974"
    INDEX 01 00:53:72
  TRACK 34 AUDIO
    TITLE "0:"
    INDEX 01 00:55:20
  TRACK 35 AUDIO
    TITLE "6:cjc108_0975"
    INDEX 01 00:55:32
  TRACK 36 AUDIO
    TITLE "0:"
    INDEX 01 00:56:63
  TRACK 37 AUDIO
    TITLE "7:cjc108_0976"
    INDEX 01 00:57:03
  TRACK 38 AUDIO
    TITLE "0:"
    INDEX 01 01:01:11
  TRACK 39 AUDIO
    TITLE "5:cjc108_0977"
    INDEX 01 01:01:74
  TRACK 40 AUDIO
    TITLE "0:"
    INDEX 01 01:03:02
  TRACK 41 AUDIO
    TITLE "6:cjc108_0978"
    INDEX 01 01:03:14
  TRACK 42 AUDIO
    TITLE "0:"
    INDEX 01 01:04:27
  TRACK 43 AUDIO
    TITLE "7:cjc108_0979"
    INDEX 01 01:04:43
  TRACK 44 AUDIO
    TITLE "0:"
    INDEX 01 01:10:18
  TRACK 45 AUDIO
    TITLE "5:cjc108_0980"
    INDEX 01 01:10:69
  TRACK 46 AUDIO
    TITLE "0:"
    INDEX 01 01:12:05
  TRACK 47 AUDIO
    TITLE "6:cjc108_0981"
    INDEX 01 01:12:07
  TRACK 48 AUDIO
    TITLE "0:"
    INDEX 01 01:13:18
  TRACK 49 AUDIO
    TITLE "7:cjc108_0982"
    INDEX 01 01:13:32
  TRACK 50 AUDIO
    TITLE "0:"
    INDEX 01 01:18:60
  TRACK 51 AUDIO
    TITLE "5:cjc108_0983"
    INDEX 01 01:19:52
  TRACK 52 AUDIO
    TITLE "0:"
    INDEX 01 01:21:08
  TRACK 53 AUDIO
    TITLE "6:cjc108_0984"
    INDEX 01 01:21:14
  TRACK 54 AUDIO
    TITLE "0:"
    INDEX 01 01:22:29
  TRACK 55 AUDIO
    TITLE "7:cjc108_0985"
    INDEX 01 01:22:48
  TRACK 56 AUDIO
    TITLE "0:"
    INDEX 01 01:26:54
  TRACK 57 AUDIO
    TITLE "5:cjc108_0986"
    INDEX 01 01:27:44
  TRACK 58 AUDIO
    TITLE "0:"
    INDEX 01 01:28:63
  TRACK 59 AUDIO
    TITLE "6:cjc108_0987"
    INDEX 01 01:29:11
  TRACK 60 AUDIO
    TITLE "0:"
    INDEX 01 01:30:11
  TRACK 61 AUDIO
    TITLE "7:cjc108_0988"
    INDEX 01 01:30:28
  TRACK 62 AUDIO
    TITLE "0:"
    INDEX 01 01:35:08
  TRACK 63 AUDIO
    TITLE "5:cjc108_0989"
    INDEX 01 01:35:69
  TRACK 64 AUDIO
    TITLE "0:"
    INDEX 01 01:37:30
  TRACK 65 AUDIO
    TITLE "6:cjc108_0990"
    INDEX 01 01:37:36
  TRACK 66 AUDIO
    TITLE "0:"
    INDEX 01 01:39:68
  TRACK 67 AUDIO
    TITLE "7:cjc108_0991"
    INDEX 01 01:40:17
  TRACK 68 AUDIO
    TITLE "0:"
    INDEX 01 01:47:33
